<svg version="1.1" xmlns="http://www.w3.org/2000/svg" x="0" y="0" viewBox="0 0 274.989 274.989" style="enable-background:new 0 0 274.989 274.989" xml:space="preserve"><style>@media (prefers-color-scheme:dark){path{fill:#fff}}</style><path d="M179.567 216.044c-5.609 11.237-8.425 16.844-14.02 19.641-5.609 5.603-16.837 5.603-28.068 5.603-14.02 0-22.432 0-28.038-5.603-5.624-2.797-8.432-8.404-14.03-19.641 0 0-2.816-2.781-2.816-5.611l-11.228 2.83 8.429 28.025 16.827 14.049c5.598 14.022 16.835 19.652 30.855 19.652 5.609 0 14.039-2.836 16.835-5.63 5.623-2.816 11.232-8.415 14.04-14.022l16.826-14.049 8.425-28.025-11.222-2.83c-2.815 2.83-2.815 5.611-2.815 5.611zm30.891-190.778C190.794 8.448 168.355 0 137.48 0c-30.855 0-53.295 8.448-72.948 25.266-16.831 14.021-28.039 36.463-28.039 61.743 0 22.422 2.787 39.249 8.4 47.7 8.426 14.008 14.04 22.428 14.04 28.032l2.797 22.43 39.28 19.663 8.432 16.84c2.782 0 5.607 0 11.222 2.797h16.817c14.039 0 22.459-2.797 30.875-2.797l5.603-16.84 39.291-19.663 2.796-22.43c2.818-5.604 2.818-8.426 2.818-11.216 14.018-19.648 19.633-42.094 19.633-64.517-.001-25.279-8.411-47.721-28.039-61.742zM95.412 162.742c-16.845 0-22.44-11.216-22.44-28.032 0-8.451 0-16.867 5.595-19.652 2.802-5.626 8.434-8.415 16.845-8.415 16.812 0 25.252 8.415 25.252 25.237 0 19.646-8.44 30.862-25.252 30.862zm50.509 30.855c-2.831 0-5.633 0-8.44-2.806-2.817 2.806-2.817 2.806-5.595 2.806-2.836 0-5.609 0-8.425-2.806-2.797 0-2.797-2.791-2.797-5.618 0-2.776 2.797-8.387 5.613-11.198 5.609-5.621 8.387-11.232 11.204-16.837 2.807 5.604 8.44 11.216 11.231 16.837 5.604 2.811 5.604 8.422 5.604 11.198 0 5.618-2.797 8.424-8.395 8.424zm36.464-30.855c-16.837 0-25.263-11.216-25.263-28.032 0-16.867 8.426-28.068 25.263-28.068 8.409 0 14.018 2.79 16.826 8.415 5.613 2.785 5.613 8.411 5.613 16.821-.001 19.648-8.421 30.864-22.439 30.864z"/></svg>
